<svg height="512pt" viewBox="0 0 512 512" width="512pt" xmlns="http://www.w3.org/2000/svg" xmlns:xlink="http://www.w3.org/1999/xlink"><linearGradient id="a" gradientUnits="userSpaceOnUse" x1="74.9807" x2="437.0193" y1="74.9807" y2="437.0193"><stop offset="0" stop-color="#4bb9ec"/><stop offset="1" stop-color="#0095ff"/></linearGradient><linearGradient id="b"><stop offset="0" stop-color="#d8d8fc"/><stop offset="1" stop-color="#a3a3d1"/></linearGradient><linearGradient id="c" gradientUnits="userSpaceOnUse" x1="324.5494" x2="425.836" xlink:href="#b" y1="263.6887" y2="364.9753"/><linearGradient id="d" gradientUnits="userSpaceOnUse" x1="115.1383" x2="387.1471" y1="121.35" y2="393.3588"><stop offset="0" stop-color="#f2f2fc"/><stop offset="1" stop-color="#d8d8fc"/></linearGradient><linearGradient id="e" gradientUnits="userSpaceOnUse" x1="164.5596" x2="214.8491" xlink:href="#b" y1="214.1846" y2="264.4741"/><linearGradient id="f" gradientUnits="userSpaceOnUse" x1="277.6419" x2="319.5962" xlink:href="#b" y1="218.3522" y2="260.3065"/><linearGradient id="g" gradientUnits="userSpaceOnUse" x1="164.5595" x2="214.8492" xlink:href="#b" y1="247.5257" y2="297.8154"/><linearGradient id="h" gradientUnits="userSpaceOnUse" x1="277.6419" x2="319.5963" xlink:href="#b" y1="251.6933" y2="293.6477"/><linearGradient id="i" gradientUnits="userSpaceOnUse" x1="164.5595" x2="214.8492" xlink:href="#b" y1="280.867" y2="331.1567"/><linearGradient id="j" gradientUnits="userSpaceOnUse" x1="164.5595" x2="214.8492" xlink:href="#b" y1="314.2083" y2="364.498"/><linearGradient id="k" gradientUnits="userSpaceOnUse" x1="269.3065" x2="327.9316" xlink:href="#b" y1="293.37" y2="351.995"/><linearGradient id="l" gradientUnits="userSpaceOnUse" x1="177.0625" x2="302.9256" y1="117.7729" y2="243.636"><stop offset="0" stop-color="#ff641a"/><stop offset="1" stop-color="#f03800"/></linearGradient><path d="m512 256c0 141.386719-114.613281 256-256 256s-256-114.613281-256-256 114.613281-256 256-256 256 114.613281 256 256zm0 0" fill="url(#a)"/><path d="m407.257812 247.664062v125.585938c0 13.898438-11.425781 25.007812-25.007812 25.007812-13.835938 0-41.675781-11.171874-41.675781-25.007812v-125.585938zm0 0" fill="url(#c)"/><path d="m357.242188 373.25v-259.507812h-234.5v251.171874c0 18.335938 15.003906 33.339844 33.34375 33.339844h226.164062c-13.835938.003906-25.007812-11.167968-25.007812-25.003906zm0 0" fill="url(#d)"/><path d="m147.75 230.992188h83.910156v16.671874h-83.910156zm0 0" fill="url(#e)"/><path d="m265 230.992188h67.238281v16.671874h-67.238281zm0 0" fill="url(#f)"/><path d="m147.75 264.335938h83.910156v16.671874h-83.910156zm0 0" fill="url(#g)"/><path d="m265 264.335938h67.238281v16.671874h-67.238281zm0 0" fill="url(#h)"/><path d="m147.75 297.675781h83.910156v16.671875h-83.910156zm0 0" fill="url(#i)"/><path d="m147.75 331.019531h83.910156v16.667969h-83.910156zm0 0" fill="url(#j)"/><path d="m265 297.675781h67.238281v50.011719h-67.238281zm0 0" fill="url(#k)"/><path d="m239.992188 147.085938h-92.242188v67.238281h184.488281v-67.238281zm0 0" fill="url(#l)"/></svg>